:SAMPLES-PER-SECOND 30
:FULLY-SPECIFIED
:DEGREES
329
root  -4.22153 37.4532 7.74693 179 28.9027 175.792
RightUpLeg  -17.9334 -13.2189 -8.94452
RightLeg  44.1656 -9.59582 -10.095
RightFoot  -14.3962 0.420015 19.293
RightToes  -1.74624e-010 0 -3.6325e-017
Spine  7.71035 1.28446 -10.6794
Spine1  21.419 -0.304872 2.03924
HEad  -13.5621 22.134 -6.79261
LeftShoulder1  0.640666 0.371704 -13.4513
LeftArm  16.1843 7.30702 -58.9887
LeftForeArm  63.6735 -78.9817 -79.959
LeftHand  -2.75859 -3.04122 37.0341
RightShoulder  0.552961 -0.584933 11.9303
RightArm  7.3592 -16.5485 60.3143
RightForeArm  147.004 66.0431 155.352
RightHand  -1.45258 5.3513 -15.9016
LeftUpLeg  -11.2076 -5.38676 3.35741
LeftLeg  33.4076 4.95861 3.87493
LeftFoot  -22.2334 -0.952873 -11.3385
LeftToes  3.7286e-011 -1.5702e-010 -9.70233e-012
330
root  -3.595 36.8254 7.64412 176.94 30.0133 174.904
RightUpLeg  -20.0075 -13.0046 -10.1253
RightLeg  51.8198 -6.66199 -9.40555
RightFoot  -13.8355 0.345318 19.9871
RightToes  -1.74624e-010 0 -3.6325e-017
Spine  7.88155 1.9179 -11.6244
Spine1  22.4729 0.344012 1.63373
HEad  -13.508 22.2165 -6.82452
LeftShoulder1  0.720269 0.0370252 -13.8036
LeftArm  15.6794 4.41688 -60.6301
LeftForeArm  39.8299 -77.1864 -57.8699
LeftHand  -2.73249 -2.67541 38.2452
RightShoulder  0.615064 -0.388297 12.818
RightArm  8.35935 -15.2602 60.4018
RightForeArm  142.831 68.4304 151.983
RightHand  -1.51318 5.47056 -16.3666
LeftUpLeg  -10.3251 -5.14849 3.38412
LeftLeg  37.3483 4.47711 4.03562
LeftFoot  -24.7399 -1.43697 -13.4438
LeftToes  3.7286e-011 -1.5702e-010 -9.70233e-012
331
root  -2.88292 36.2884 7.55102 175.092 30.425 174.154
RightUpLeg  -21.5803 -13.59 -11.6048
RightLeg  57.438 -5.93201 -10.3771
RightFoot  -13.4799 0.272915 19.402
RightToes  -1.74624e-010 0 -3.6325e-017
Spine  7.6018 2.30327 -12.4483
Spine1  24.1033 0.617802 1.68831
HEad  -13.3308 22.2204 -7.19933
LeftShoulder1  0.827665 -0.415381 -14.1906
LeftArm  15.2249 0.725036 -61.7194
LeftForeArm  29.7836 -75.5761 -48.8058
LeftHand  -2.68654 -2.57757 38.0778
RightShoulder  0.651804 -0.321416 13.6409
RightArm  8.91297 -14.1941 60.4874
RightForeArm  139.951 69.5945 149.936
RightHand  -1.62076 5.67769 -17.1819
LeftUpLeg  -9.01511 -4.76665 3.89328
LeftLeg  39.9495 3.27118 3.32969
LeftFoot  -26.764 -1.93967 -15.433
LeftToes  3.7286e-011 -1.5702e-010 -9.70233e-012
332
root  -2.05673 35.9015 7.49143 173.837 30.0527 173.672
RightUpLeg  -22.8013 -14.184 -13.5042
RightLeg  59.8528 -6.55928 -12.4887
RightFoot  -14.0484 0.3554 18.9368
RightToes  -1.74624e-010 0 -3.6325e-017
Spine  7.22901 2.3438 -12.9303
Spine1  25.4734 0.530488 1.90123
HEad  -12.9801 22.3402 -7.8328
LeftShoulder1  0.859492 -0.552712 -14.266
LeftArm  14.6302 -3.56545 -62.5425
LeftForeArm  30.4187 -75.5578 -48.615
LeftHand  -2.66427 -2.84851 36.6329
RightShoulder  0.65021 -0.369825 13.9344
RightArm  8.951 -13.7995 60.5458
RightForeArm  139.858 69.4429 150.139
RightHand  -1.66581 5.85384 -17.3792
LeftUpLeg  -7.71209 -4.46417 5.01711
LeftLeg  41.2207 1.66015 1.96325
LeftFoot  -28.0141 -2.39211 -17.3584
LeftToes  3.7286e-011 -1.5702e-010 -9.70233e-012
333
root  -1.06786 35.6819 7.47357 173.073 29.1467 173.457
RightUpLeg  -23.6455 -13.9838 -15.8159
RightLeg  59.1901 -7.49231 -13.7654
RightFoot  -15.7037 0.618132 18.8974
RightToes  -1.74624e-010 0 -3.6325e-017
Spine  7.24204 2.13402 -13.0986
Spine1  25.8632 0.218376 2.01564
HEad  -12.2844 22.6747 -8.28791
LeftShoulder1  0.816308 -0.429306 -13.7879
LeftArm  13.6753 -8.13799 -63.1661
LeftForeArm  36.0407 -76.3563 -52.0562
LeftHand  -2.65669 -3.22809 35.0316
RightShoulder  0.63307 -0.427001 13.7468
RightArm  8.69669 -13.7448 60.0236
RightForeArm  141.414 68.6981 151.424
RightHand  -1.60582 5.87168 -16.7456
LeftUpLeg  -6.36033 -4.38848 6.69614
LeftLeg  41.222 -0.184135 0.237896
LeftFoot  -28.049 -2.7099 -19.4444
LeftToes  3.7286e-011 -1.5702e-010 -9.70233e-012
